<?xml version="1.0" encoding="UTF-8"?>
<svg width="24px" height="22px" viewBox="0 0 24 22" version="1.1" xmlns="http://www.w3.org/2000/svg" xmlns:xlink="http://www.w3.org/1999/xlink">
    <!-- Generator: Sketch 42 (36781) - http://www.bohemiancoding.com/sketch -->
    <title>Group 195</title>
    <desc>Created with Sketch.</desc>
    <defs></defs>
    <g id="Page-1" stroke="none" stroke-width="1" fill="none" fill-rule="evenodd">
        <g id="Icons" transform="translate(-1.000000, -1538.000000)" fill="#000000">
            <g id="Group-195" transform="translate(1.000000, 1538.000000)">
                <path d="M0.3091,9.5381 C0.1201,9.6161 -0.0019,9.8011 0.0001,10.0071 C0.0021,10.2101 0.1281,10.3921 0.3191,10.4661 L8.6211,13.6951 L23.1501,0.1031 L0.3091,9.5381 Z" id="Fill-201"></path>
                <path d="M9.0098,14.7002 L8.9998,14.6902 L8.9998,21.5002 C8.9998,21.7742 9.2208,22.0002 9.4998,22.0002 C9.6748,22.0002 9.8408,21.9082 9.9318,21.7522 L13.2188,16.1162 L19.2598,19.4372 C19.4018,19.5172 19.5708,19.5182 19.7078,19.4552 C19.8508,19.3892 19.9558,19.2612 19.9888,19.1052 L23.9668,0.7102 L9.0098,14.7002 Z" id="Fill-202"></path>
            </g>
        </g>
    </g>
</svg>