<?xml version="1.0" encoding="UTF-8"?>
<svg width="19px" height="24px" viewBox="0 0 19 24" version="1.1" xmlns="http://www.w3.org/2000/svg" xmlns:xlink="http://www.w3.org/1999/xlink">
    <!-- Generator: Sketch 42 (36781) - http://www.bohemiancoding.com/sketch -->
    <title>Fill 379</title>
    <desc>Created with Sketch.</desc>
    <defs></defs>
    <g id="Page-1" stroke="none" stroke-width="1" fill="none" fill-rule="evenodd">
        <g id="Icons" transform="translate(-435.000000, -433.000000)" fill="#000000">
            <g id="Fill-379" transform="translate(435.000000, 433.000000)">
                <path d="M10.1367,0.5 C3.8607,0.5 0.6957,5 0.6957,8.752 C0.6957,11.024 1.5557,13.046 3.4007,13.799 C3.7027,13.923 3.9747,13.803 4.0617,13.469 C4.1227,13.237 4.2677,12.652 4.3317,12.408 C4.4197,12.077 4.3867,11.962 4.1417,11.672 C3.6097,11.046 3.2697,10.232 3.2697,9.082 C3.2697,5.743 5.7677,2.754 9.7747,2.754 C13.3227,2.754 15.2717,4.922 15.2717,7.816 C15.2717,11.625 13.5847,14.841 11.0817,14.841 C9.7007,14.841 8.6657,13.699 8.9967,12.296 C9.3947,10.622 10.1637,8.816 10.1637,7.608 C10.1637,6.527 9.5837,5.625 8.3817,5.625 C6.9687,5.625 5.8337,7.086 5.8337,9.044 C5.8337,10.292 6.2557,11.135 6.2557,11.135 C6.2557,11.135 4.8107,17.261 4.5567,18.334 C4.0517,20.471 4.4807,23.09 4.5167,23.354 C4.5377,23.511 4.7407,23.548 4.8307,23.431 C4.9607,23.261 6.6437,21.182 7.2157,19.106 C7.3777,18.518 8.1447,15.475 8.1447,15.475 C8.6037,16.351 9.9457,17.121 11.3717,17.121 C15.6187,17.121 18.4997,13.25 18.4997,8.068 C18.4997,4.15 15.1817,0.5 10.1367,0.5"></path>
            </g>
        </g>
    </g>
</svg>