<?xml version="1.0" encoding="UTF-8"?>
<svg width="620px" height="174px" viewBox="0 0 620 174" version="1.1" xmlns="http://www.w3.org/2000/svg" xmlns:xlink="http://www.w3.org/1999/xlink">
    <!-- Generator: Sketch 42 (36781) - http://www.bohemiancoding.com/sketch -->
    <title>Logo</title>
    <desc>Created with Sketch.</desc>
    <defs></defs>
    <g id="Page-1" stroke="none" stroke-width="1" fill="none" fill-rule="evenodd">
        <g id="Artboard" transform="translate(-40.000000, -35.000000)" fill="#800080">
            <g id="Logo" transform="translate(40.000000, 35.500000)">
                <path d="M121.92003,0 L619.14172,0 L619.14172,127.220901 L121.92003,127.220901 L121.92003,0 Z M145.588363,26.8025284 L145.588363,99.6563727 L170.3865,99.6563727 C179.762462,99.5901115 185.676187,99.424461 188.127852,99.1594161 C192.037264,98.7287182 195.325428,97.5774468 197.992442,95.7055674 C200.659456,93.833688 202.763218,91.3323646 204.303791,88.2015221 C205.844364,85.0706795 206.61464,81.8487762 206.61464,78.5357153 C206.61464,74.328128 205.421956,70.6672506 203.036552,67.5529734 C200.651148,64.4386962 197.238746,62.2355438 192.799245,60.94345 C195.946653,59.5188338 198.439694,57.3819416 200.278442,54.5327093 C202.117191,51.6834769 203.036552,48.5526814 203.036552,45.1402287 C203.036552,41.9928208 202.291124,39.1519138 200.800247,36.6174222 C199.309369,34.0829306 197.445801,32.0537113 195.209485,30.5297033 C192.973168,29.0056953 190.438715,28.0035094 187.606048,27.5231156 C184.773381,27.0427218 180.474749,26.8025284 174.710023,26.8025284 L145.588363,26.8025284 Z M160.29828,38.9282706 L168.746543,38.9282706 C175.67084,38.9282706 179.8618,39.0110959 181.319546,39.1767489 C183.771211,39.4749244 185.618215,40.3280248 186.860613,41.7360757 C188.103011,43.1441265 188.7242,44.9745652 188.7242,47.2274466 C188.7242,49.5797198 188.00362,51.4764187 186.562439,52.9176002 C185.121257,54.3587817 183.141733,55.2284471 180.623807,55.5266226 C179.232321,55.6922756 175.670834,55.7751009 169.939239,55.7751009 L160.29828,55.7751009 L160.29828,38.9282706 Z M160.29828,67.9008431 L172.175544,67.9008431 C178.867927,67.9008431 183.216254,68.2487092 185.220656,68.944452 C187.225058,69.6401948 188.757325,70.7500535 189.817505,72.2740615 C190.877684,73.7980695 191.407766,75.6533558 191.407766,77.839976 C191.407766,80.4241635 190.720316,82.4865129 189.345396,84.0270862 C187.970476,85.5676595 186.189732,86.5367153 184.003112,86.9342826 C182.578496,87.2324581 179.21579,87.3815436 173.914892,87.3815436 L160.29828,87.3815436 L160.29828,67.9008431 Z M219.038556,99.6563727 L274.449222,99.6563727 L274.449222,87.3815436 L233.748472,87.3815436 L233.748472,67.5529734 L270.324482,67.5529734 L270.324482,55.2781443 L233.748472,55.2781443 L233.748472,39.1270533 L273.057743,39.1270533 L273.057743,26.8025284 L219.038556,26.8025284 L219.038556,99.6563727 Z M287.071921,99.6563727 L300.738228,99.6563727 L300.738228,52.1473174 L330.108366,99.6563727 L344.867978,99.6563727 L344.867978,26.8025284 L331.201671,26.8025284 L331.201671,75.4545841 L301.384272,26.8025284 L287.071921,26.8025284 L287.071921,99.6563727 Z M360.422722,99.6563727 L415.833388,99.6563727 L415.833388,87.3815436 L375.132638,87.3815436 L375.132638,67.5529734 L411.708647,67.5529734 L411.708647,55.2781443 L375.132638,55.2781443 L375.132638,39.1270533 L414.441909,39.1270533 L414.441909,26.8025284 L360.422722,26.8025284 L360.422722,99.6563727 Z M428.406391,99.6563727 L443.116307,99.6563727 L443.116307,68.6959737 L473.530054,68.6959737 L473.530054,56.3714489 L443.116307,56.3714489 L443.116307,39.1270533 L478.350534,39.1270533 L478.350534,26.8025284 L428.406391,26.8025284 L428.406391,99.6563727 Z M490.029015,127.220901 L504.738932,127.220901 L504.738932,26.8025284 L490.029015,26.8025284 L490.029015,127.220901 Z M535.152678,99.6563727 L549.862595,99.6563727 L549.862595,39.1270533 L571.430513,39.1270533 L571.430513,26.8025284 L513.535064,26.8025284 L513.535064,39.1270533 L535.152678,39.1270533 L535.152678,99.6563727 Z M428.406391,127.220901 L489.896493,127.220901 L489.896493,173.412637 L428.406391,127.220901 Z" id="Combined-Shape"></path>
                <path d="M509.59591,167.800373 L509.59591,140.480182 L514.963042,140.480182 L526.144566,158.724702 L526.144566,140.480182 L531.269432,140.480182 L531.269432,167.800373 L525.734577,167.800373 L514.720775,149.984477 L514.720775,167.800373 L509.59591,167.800373 Z M537.10246,167.800373 L537.10246,140.480182 L557.359656,140.480182 L557.359656,145.101878 L542.618679,145.101878 L542.618679,151.158538 L556.334683,151.158538 L556.334683,155.761598 L542.618679,155.761598 L542.618679,163.197312 L557.88146,163.197312 L557.88146,167.800373 L537.10246,167.800373 Z M566.435326,167.800373 L559.91277,140.480182 L565.55944,140.480182 L569.677969,159.246507 L574.672383,140.480182 L581.232211,140.480182 L586.02163,159.563317 L590.214702,140.480182 L595.768192,140.480182 L589.133821,167.800373 L583.282157,167.800373 L577.840481,147.375455 L572.417442,167.800373 L566.435326,167.800373 Z M597.184519,158.911061 L602.551651,158.389257 C602.874674,160.190734 603.530029,161.513867 604.517735,162.358698 C605.505442,163.203528 606.837893,163.625937 608.51513,163.625937 C610.291759,163.625937 611.630423,163.250118 612.531161,162.498467 C613.4319,161.746816 613.882262,160.867833 613.882262,159.861491 C613.882262,159.215444 613.692799,158.665691 613.313868,158.212216 C612.934937,157.758741 612.27337,157.364285 611.329147,157.028838 C610.683101,156.805206 609.210881,156.407645 606.912445,155.836142 C603.955538,155.103127 601.880765,154.202402 600.688063,153.13394 C599.010826,151.630639 598.17222,149.79813 598.17222,147.636357 C598.17222,146.244872 598.566676,144.94348 599.355598,143.732142 C600.144521,142.520804 601.281298,141.598337 602.765963,140.964714 C604.250629,140.331091 606.042761,140.014285 608.142413,140.014285 C611.571431,140.014285 614.152474,140.765924 615.885619,142.269226 C617.618764,143.772527 618.528806,145.778969 618.615774,148.288613 L613.099555,148.530879 C612.8635,147.12697 612.35723,146.117537 611.580732,145.50255 C610.804233,144.887563 609.639503,144.580074 608.086505,144.580074 C606.483812,144.580074 605.229009,144.909304 604.322059,145.567775 C603.738132,145.990191 603.446173,146.555473 603.446173,147.26364 C603.446173,147.909687 603.719496,148.462545 604.266151,148.922233 C604.961894,149.50616 606.65153,150.114925 609.335109,150.748548 C612.018688,151.382171 614.003389,152.037526 615.289271,152.714633 C616.575152,153.39174 617.58148,154.317312 618.308282,155.491378 C619.035085,156.665444 619.398481,158.115922 619.398481,159.842855 C619.398481,161.408276 618.963648,162.874284 618.09397,164.240921 C617.224291,165.607559 615.994336,166.623204 614.404067,167.287887 C612.813797,167.952569 610.832203,168.284906 608.459223,168.284906 C605.005357,168.284906 602.352877,167.486677 600.501704,165.890196 C598.650532,164.293715 597.544814,161.96736 597.184519,158.911061 Z" id="NEWS"></path>
                <path d="M10.3300546,117.380076 L117.540194,117.380076 L117.540194,10.1699367 L10.3300546,10.1699367 L10.3300546,117.380076 Z M0.160117957,0 L127.710131,0 L127.710131,127.550013 L0.160117957,127.550013 L0.160117957,0 Z" id="Rectangle-5" fill-rule="nonzero"></path>
                <path d="M67.0162556,99.6563727 L67.0162556,84.9961517 L37.1988569,84.9961517 L37.1988569,72.7710182 L68.8052996,26.5043545 L80.5334764,26.5043545 L80.5334764,72.7213225 L89.5780874,72.7213225 L89.5780874,84.9961517 L80.5334764,84.9961517 L80.5334764,99.6563727 L67.0162556,99.6563727 Z M67.0162556,72.7213225 L67.0162556,47.8237946 L50.2688167,72.7213225 L67.0162556,72.7213225 Z" id="4"></path>
            </g>
        </g>
    </g>
</svg>