<?xml version="1.0" encoding="UTF-8"?>
<svg width="690px" height="242px" viewBox="0 0 690 242" version="1.1" xmlns="http://www.w3.org/2000/svg" xmlns:xlink="http://www.w3.org/1999/xlink">
    <!-- Generator: Sketch 42 (36781) - http://www.bohemiancoding.com/sketch -->
    <title>Artboard</title>
    <desc>Created with Sketch.</desc>
    <defs></defs>
    <g id="Page-1" stroke="none" stroke-width="1" fill="none" fill-rule="evenodd">
        <g id="Artboard" fill="#800080">
            <g id="won" transform="translate(36.500000, 40.500000)">
                <path d="M9.14887867,116.724055 L117.412275,116.724055 L117.412275,8.47152172 L9.14887867,8.47152172 L9.14887867,116.724055 Z M189.992728,28.4607497 L159.413554,28.4607497 L159.413554,96.7348268 L190.970462,96.7348268 C194.72496,96.7348268 198.170929,96.3285241 201.29316,95.5159185 C204.398008,94.7033129 207.063963,93.4996138 209.275814,91.9222029 C211.485493,90.3295829 213.175887,88.3632513 214.379586,86.0210352 C215.583285,83.6809919 216.185134,80.9998281 216.185134,77.9427798 C216.185134,75.6027365 215.859223,73.5364587 215.2074,71.7656738 C214.575133,69.977507 213.647372,68.4326874 212.445845,67.1333875 C211.257355,65.831915 209.827691,64.71078 208.185098,63.7678099 C206.527296,62.8422218 204.706538,62.0122342 202.707615,61.2974021 C203.926523,60.6477522 205.145432,59.865565 206.331749,58.9399768 C207.518066,58.0295978 208.558809,56.9736452 209.436597,55.769946 C210.299176,54.5684196 211.014008,53.1539644 211.550675,51.5265805 C212.104725,49.8861602 212.380663,48.0328111 212.380663,45.9513241 C212.380663,40.5390234 210.364358,36.2804487 206.349131,33.1582182 C202.316521,30.0207785 196.871629,28.4607497 189.992728,28.4607497 Z M187.652684,57.3299749 L171.315836,57.3299749 L171.315836,39.0919771 L188.515263,39.0919771 C192.417508,39.0919771 195.37461,39.8567823 197.423506,41.3994293 C199.45502,42.9290398 200.478381,45.1061274 200.478381,47.9198285 C200.478381,51.1202778 199.309446,53.4950849 196.984612,55.0225227 C194.644569,56.5673424 191.537547,57.3299749 187.652684,57.3299749 Z M191.148626,86.1035994 L171.315836,86.1035994 L171.315836,67.3767347 L190.286048,67.3767347 C195.016108,67.3767347 198.529432,68.1893402 200.836884,69.8145514 C203.129127,71.4419353 204.282853,73.7167963 204.282853,76.6413073 C204.282853,79.7635378 203.113918,82.120963 200.789083,83.713583 C198.446867,85.306203 195.244245,86.1035994 191.148626,86.1035994 Z M280.367938,28.4607497 L229.838646,28.4607497 L229.838646,96.7348268 L280.854632,96.7348268 L280.854632,85.9080526 L241.740928,85.9080526 L241.740928,67.6700549 L275.976826,67.6700549 L275.976826,56.8432806 L241.740928,56.8432806 L241.740928,39.2875239 L280.367938,39.2875239 L280.367938,28.4607497 Z M342.792993,75.6679188 L306.297443,28.4607497 L295.192558,28.4607497 L295.192558,96.7348268 L307.09484,96.7348268 L307.09484,48.1631757 L344.663724,96.7348268 L354.695275,96.7348268 L354.695275,28.4607497 L342.792993,28.4607497 L342.792993,75.6679188 Z M422.778151,28.4607497 L372.251032,28.4607497 L372.251032,96.7348268 L423.267018,96.7348268 L423.267018,85.9080526 L384.153313,85.9080526 L384.153313,67.6700549 L418.389212,67.6700549 L418.389212,56.8432806 L384.153313,56.8432806 L384.153313,39.2875239 L422.778151,39.2875239 L422.778151,28.4607497 Z M488.327609,28.4607497 L437.604943,28.4607497 L437.604943,96.7348268 L449.505052,96.7348268 L449.505052,68.9367635 L483.93867,68.9367635 L483.93867,58.1099893 L449.505052,58.1099893 L449.505052,39.2875239 L488.327609,39.2875239 L488.327609,28.4607497 Z M502.276614,28.4607497 L502.276614,160.394 L436.638073,124.904429 L0.968504405,124.904429 L0.968504405,0.291147451 L616.862691,0.291147451 L616.862691,124.904429 L514.176723,124.904429 L514.176723,28.4607497 L502.276614,28.4607497 Z M561.386065,39.5786713 L583.041786,39.5786713 L583.041786,28.4607497 L527.636861,28.4607497 L527.636861,39.5786713 L549.292582,39.5786713 L549.292582,96.7348268 L561.386065,96.7348268 L561.386065,39.5786713 L561.386065,39.5786713 Z" id="Fill-1"></path>
                <path d="M72.3713303,27.8024088 L33.9876671,73.18882 L36.25601,81.8732704 L71.0894124,81.8732704 L71.0894124,97.3627493 L82.7331377,97.3627493 L82.7331377,81.8732704 L92.5995599,81.8732704 L92.5995599,71.9069021 L82.7331377,71.9069021 L82.7331377,27.8024088 L72.3713303,27.8024088 Z M71.0894124,71.9069021 L48.3929477,71.9069021 L71.0894124,44.5759783 L71.0894124,71.9069021 L71.0894124,71.9069021 Z" id="Fill-2"></path>
                <path d="M530.600481,153.126177 L518.007267,136.837129 L514.176723,136.837129 L514.176723,160.394 L518.281033,160.394 L518.281033,143.635639 L531.245785,160.394 L534.706964,160.394 L534.706964,136.837129 L530.600481,136.837129 L530.600481,153.126177 Z M558.198652,136.837129 L540.764569,136.837129 L540.764569,160.394 L558.368126,160.394 L558.368126,156.659056 L544.871052,156.659056 L544.871052,150.366795 L556.684251,150.366795 L556.684251,146.629678 L544.871052,146.629678 L544.871052,140.572073 L558.198652,140.572073 L558.198652,136.837129 Z M571.593607,154.303803 L565.974896,136.837129 L561.496875,136.837129 L569.70984,160.563474 L573.277483,160.563474 L579.065668,143.635639 L584.856026,160.563474 L588.423668,160.563474 L596.634461,136.837129 L592.293322,136.837129 L586.672438,154.303803 L580.884253,136.769774 L577.383965,136.769774 L571.593607,154.303803 Z M603.6698,142.99468 C603.6698,142.21032 604.006575,141.543289 604.680125,140.993585 C605.351503,140.443881 606.294473,140.167943 607.506863,140.167943 C608.58237,140.167943 609.649187,140.376526 610.702967,140.79152 C611.758919,141.206514 612.823563,141.80619 613.901243,142.592723 L616.123958,139.461802 C614.911568,138.497104 613.614441,137.762717 612.23475,137.256468 C610.855058,136.752392 609.301548,136.500354 607.574218,136.500354 C606.407455,136.500354 605.329775,136.66331 604.347696,136.989221 C603.361271,137.315132 602.52042,137.780099 601.818624,138.384121 C601.116828,138.990317 600.567124,139.71384 600.162994,140.556864 C599.765382,141.397715 599.563317,142.334167 599.563317,143.366219 C599.563317,144.465627 599.737137,145.39556 600.084776,146.160366 C600.432414,146.922998 600.943009,147.572648 601.605695,148.111488 C602.268381,148.650328 603.091851,149.097913 604.067412,149.456416 C605.049491,149.817091 606.166281,150.143002 607.428644,150.43415 C608.528052,150.701397 609.418876,150.959953 610.109808,151.207646 C610.794222,151.455338 611.333062,151.71824 611.730674,151.998524 C612.12394,152.278808 612.39336,152.587337 612.538934,152.924112 C612.684507,153.260887 612.756208,153.641117 612.756208,154.069147 C612.756208,154.988217 612.380323,155.716086 611.628555,156.254926 C610.878959,156.793766 609.862115,157.063186 608.58237,157.063186 C607.102733,157.063186 605.779533,156.800284 604.61277,156.272308 C603.446008,155.744331 602.290109,154.988217 601.145074,153.999619 L598.655111,156.96324 C600.067394,158.240812 601.605695,159.188128 603.26567,159.805187 C604.925645,160.422245 606.666012,160.730775 608.482424,160.730775 C609.716542,160.730775 610.850713,160.574337 611.880593,160.25929 C612.9083,159.946415 613.794779,159.485793 614.52482,158.879598 C615.259207,158.275576 615.830638,157.534671 616.245632,156.659056 C616.65628,155.783441 616.862691,154.786152 616.862691,153.665017 C616.862691,152.676419 616.699735,151.818186 616.375996,151.090318 C616.050085,150.360276 615.567736,149.72149 614.939814,149.171786 C614.311891,148.622083 613.514495,148.154943 612.560661,147.774713 C611.606827,147.392311 610.50742,147.044672 609.273302,146.731797 C608.145649,146.462377 607.220061,146.203821 606.485674,145.958301 C605.755633,145.710608 605.184201,145.441188 604.762689,145.150041 C604.347696,144.858893 604.063066,144.543846 603.904456,144.20707 C603.748019,143.870295 603.6698,143.466165 603.6698,142.99468 L603.6698,142.99468 Z" id="Fill-3"></path>
            </g>
        </g>
    </g>
</svg>