<svg xmlns="http://www.w3.org/2000/svg"><symbol id="ico-facebook" viewBox="0 0 13 24"><title>Fill 256</title><path d="M12.768 7.465H8.5V5.56c0-.896.594-1.105 1.012-1.105H12.5V.513L8.17.5C4.246.5 3.5 3.439 3.5 5.32v2.145h-3v4h3v12h5v-12h3.85l.418-4z" fill-rule="evenodd"/></symbol><symbol id="ico-mail" viewBox="0 0 24 22"><title>Group 195</title><g fill-rule="evenodd"><path d="M.31 9.538a.5.5 0 0 0 .01.928l8.301 3.23L23.151.102.308 9.538zM9.01 14.7L9 14.69v6.81a.5.5 0 0 0 .932.252l3.287-5.636 6.04 3.321a.496.496 0 0 0 .73-.332L23.967.71 9.01 14.7z"/></g></symbol><symbol id="ico-pintrest" viewBox="0 0 19 24"><title>Fill 379</title><path d="M10.137.5C3.86.5.696 5 .696 8.752c0 2.272.86 4.294 2.705 5.047.302.124.574.004.66-.33.062-.232.207-.817.27-1.061.089-.331.056-.446-.19-.736-.531-.626-.871-1.44-.871-2.59 0-3.339 2.498-6.328 6.505-6.328 3.548 0 5.497 2.168 5.497 5.062 0 3.809-1.687 7.025-4.19 7.025-1.381 0-2.416-1.142-2.085-2.545.398-1.674 1.167-3.48 1.167-4.688 0-1.081-.58-1.983-1.782-1.983-1.413 0-2.548 1.461-2.548 3.419 0 1.248.422 2.091.422 2.091s-1.445 6.126-1.7 7.199c-.504 2.137-.075 4.756-.04 5.02.022.157.225.194.315.077.13-.17 1.813-2.249 2.385-4.325.162-.588.929-3.631.929-3.631.459.876 1.8 1.646 3.227 1.646 4.247 0 7.128-3.871 7.128-9.053C18.5 4.15 15.182.5 10.137.5" fill-rule="evenodd"/></symbol><symbol id="ico-twitter" viewBox="0 0 23 19"><title>Fill 264</title><path d="M22.444 2.834c-.814.363-1.5.375-2.228.016.94-.562.982-.956 1.321-2.019-.878.521-1.85.9-2.886 1.105a4.545 4.545 0 0 0-7.743 4.144 12.896 12.896 0 0 1-9.366-4.749 4.532 4.532 0 0 0-.616 2.286c0 1.577.803 2.967 2.022 3.782A4.535 4.535 0 0 1 .89 6.831v.057a4.548 4.548 0 0 0 3.645 4.456 4.56 4.56 0 0 1-2.053.078 4.551 4.551 0 0 0 4.245 3.156A9.134 9.134 0 0 1 0 16.459 12.862 12.862 0 0 0 6.965 18.5c8.36 0 12.928-6.924 12.928-12.929 0-.198-.003-.392-.012-.588.887-.64 1.954-1.237 2.563-2.149" fill-rule="evenodd"/></symbol><symbol id="lgo-4benefit-news" viewBox="0 0 620 174"><title>Logo</title><g fill-rule="evenodd"><path d="M121.92.5h497.222v127.22H121.92V.5zm23.668 26.803v72.853h24.799c9.375-.066 15.29-.232 17.74-.497 3.91-.43 7.198-1.582 9.865-3.453 2.667-1.872 4.771-4.374 6.312-7.504 1.54-3.131 2.31-6.353 2.31-9.666 0-4.208-1.192-7.869-3.577-10.983-2.386-3.114-5.798-5.317-10.238-6.61 3.148-1.424 5.64-3.561 7.48-6.41 1.838-2.85 2.758-5.98 2.758-9.393 0-3.147-.746-5.988-2.237-8.523-1.49-2.534-3.354-4.563-5.59-6.087-2.237-1.524-4.771-2.526-7.604-3.007-2.833-.48-7.131-.72-12.896-.72h-29.122zm14.71 12.125h8.449c6.924 0 11.115.083 12.573.249 2.451.298 4.298 1.151 5.54 2.56 1.243 1.407 1.864 3.238 1.864 5.49 0 2.353-.72 4.25-2.162 5.69-1.44 1.442-3.42 2.311-5.938 2.61-1.392.165-4.953.248-10.685.248h-9.64V39.428zm0 28.973h11.878c6.692 0 11.04.348 13.045 1.043 2.004.696 3.536 1.806 4.597 3.33 1.06 1.524 1.59 3.38 1.59 5.566 0 2.584-.688 4.647-2.063 6.187-1.375 1.54-3.155 2.51-5.342 2.907-1.425.298-4.787.448-10.088.448h-13.617V68.4zm58.74 31.755h55.411V87.882h-40.7V68.053h36.575V55.778h-36.576v-16.15h39.31V27.302h-54.02v72.853zm68.034 0h13.666V52.647l29.37 47.51h14.76V27.302h-13.666v48.652l-29.818-48.652h-14.312v72.853zm73.35 0h55.411V87.882h-40.7V68.053h36.576V55.778h-36.576v-16.15h39.309V27.302h-54.02v72.853zm67.984 0h14.71v-30.96h30.414V56.871h-30.414V39.627h35.235V27.303h-49.945v72.853zm61.623 27.565h14.71V27.303h-14.71V127.72zm45.124-27.565h14.71V39.627h21.568V27.303h-57.896v12.324h21.618v60.53zm-106.747 27.565h61.49v46.192l-61.49-46.192zM509.596 168.3v-27.32h5.367l11.182 18.245V140.98h5.124v27.32h-5.534l-11.014-17.816V168.3h-5.125zm27.506 0v-27.32h20.258v4.622h-14.741v6.057h13.716v4.603h-13.716v7.435h15.262v4.603h-20.779zm29.333 0l-6.522-27.32h5.646l4.119 18.767 4.994-18.767h6.56l4.79 19.083 4.193-19.083h5.553l-6.634 27.32h-5.852l-5.442-20.425-5.423 20.425h-5.982zm30.75-8.889l5.367-.522c.323 1.802.978 3.125 1.966 3.97.987.845 2.32 1.267 3.997 1.267 1.777 0 3.115-.376 4.016-1.128.9-.751 1.351-1.63 1.351-2.637 0-.646-.19-1.195-.568-1.649-.38-.453-1.04-.848-1.985-1.183-.646-.224-2.118-.621-4.417-1.193-2.956-.733-5.031-1.634-6.224-2.702-1.677-1.503-2.516-3.336-2.516-5.498 0-1.391.395-2.693 1.184-3.904.789-1.211 1.925-2.134 3.41-2.767 1.485-.634 3.277-.95 5.376-.95 3.43 0 6.01.75 7.744 2.254 1.733 1.504 2.643 3.51 2.73 6.02l-5.516.242c-.236-1.404-.743-2.413-1.52-3.028-.776-.615-1.94-.923-3.493-.923-1.603 0-2.858.33-3.765.988-.584.422-.876.987-.876 1.696 0 .646.273 1.199.82 1.658.696.584 2.386 1.193 5.07 1.827 2.683.633 4.667 1.289 5.953 1.966 1.286.677 2.292 1.602 3.02 2.776.726 1.174 1.09 2.625 1.09 4.352 0 1.565-.435 3.031-1.305 4.398-.87 1.367-2.1 2.382-3.69 3.047-1.59.665-3.572.997-5.945.997-3.454 0-6.106-.798-7.957-2.395-1.851-1.596-2.957-3.923-3.317-6.979z"/><path d="M10.33 117.88h107.21V10.67H10.33v107.21zM.16.5h127.55v127.55H.16V.5z" fill-rule="nonzero"/><path d="M67.016 100.156v-14.66H37.2V73.271l31.606-46.267h11.728v46.217h9.045v12.275h-9.045v14.66H67.016zm0-26.935V48.324L50.27 73.22h16.747z"/></g></symbol></svg>