<svg xmlns="http://www.w3.org/2000/svg"><symbol id="ico-facebook" viewBox="0 0 13 24"><title>Fill 256</title><path d="M12.768 7.465H8.5V5.56c0-.896.594-1.105 1.012-1.105H12.5V.513L8.17.5C4.246.5 3.5 3.439 3.5 5.32v2.145h-3v4h3v12h5v-12h3.85l.418-4z" fill-rule="evenodd"/></symbol><symbol id="ico-mail" viewBox="0 0 24 22"><title>Group 195</title><g fill-rule="evenodd"><path d="M.31 9.538a.5.5 0 0 0 .01.928l8.301 3.23L23.151.102.308 9.538zM9.01 14.7L9 14.69v6.81a.5.5 0 0 0 .932.252l3.287-5.636 6.04 3.321a.496.496 0 0 0 .73-.332L23.967.71 9.01 14.7z"/></g></symbol><symbol id="ico-pintrest" viewBox="0 0 19 24"><title>Fill 379</title><path d="M10.137.5C3.86.5.696 5 .696 8.752c0 2.272.86 4.294 2.705 5.047.302.124.574.004.66-.33.062-.232.207-.817.27-1.061.089-.331.056-.446-.19-.736-.531-.626-.871-1.44-.871-2.59 0-3.339 2.498-6.328 6.505-6.328 3.548 0 5.497 2.168 5.497 5.062 0 3.809-1.687 7.025-4.19 7.025-1.381 0-2.416-1.142-2.085-2.545.398-1.674 1.167-3.48 1.167-4.688 0-1.081-.58-1.983-1.782-1.983-1.413 0-2.548 1.461-2.548 3.419 0 1.248.422 2.091.422 2.091s-1.445 6.126-1.7 7.199c-.504 2.137-.075 4.756-.04 5.02.022.157.225.194.315.077.13-.17 1.813-2.249 2.385-4.325.162-.588.929-3.631.929-3.631.459.876 1.8 1.646 3.227 1.646 4.247 0 7.128-3.871 7.128-9.053C18.5 4.15 15.182.5 10.137.5" fill-rule="evenodd"/></symbol><symbol id="ico-twitter" viewBox="0 0 23 19"><title>Fill 264</title><path d="M22.444 2.834c-.814.363-1.5.375-2.228.016.94-.562.982-.956 1.321-2.019-.878.521-1.85.9-2.886 1.105a4.545 4.545 0 0 0-7.743 4.144 12.896 12.896 0 0 1-9.366-4.749 4.532 4.532 0 0 0-.616 2.286c0 1.577.803 2.967 2.022 3.782A4.535 4.535 0 0 1 .89 6.831v.057a4.548 4.548 0 0 0 3.645 4.456 4.56 4.56 0 0 1-2.053.078 4.551 4.551 0 0 0 4.245 3.156A9.134 9.134 0 0 1 0 16.459 12.862 12.862 0 0 0 6.965 18.5c8.36 0 12.928-6.924 12.928-12.929 0-.198-.003-.392-.012-.588.887-.64 1.954-1.237 2.563-2.149" fill-rule="evenodd"/></symbol><symbol id="lgo-4benefit-news" viewBox="0 0 690 242"><title>Artboard</title><g fill-rule="evenodd"><path d="M45.649 157.224h108.263V48.972H45.65v108.252zm180.844-88.263h-30.58v68.274h31.557c3.755 0 7.2-.406 10.323-1.22 3.105-.812 5.771-2.015 7.983-3.593 2.21-1.592 3.9-3.559 5.104-5.901 1.203-2.34 1.805-5.021 1.805-8.078 0-2.34-.326-4.407-.978-6.177-.632-1.788-1.56-3.333-2.761-4.633-1.189-1.301-2.618-2.422-4.26-3.365a36.245 36.245 0 0 0-5.478-2.47 25.05 25.05 0 0 0 3.624-2.358 15.498 15.498 0 0 0 3.105-3.17c.862-1.202 1.577-2.616 2.114-4.243.554-1.64.83-3.494.83-5.576 0-5.412-2.017-9.67-6.032-12.793-4.032-3.137-9.477-4.697-16.356-4.697zm-2.34 28.869h-16.337V79.592h17.2c3.902 0 6.859.765 8.908 2.307 2.031 1.53 3.054 3.707 3.054 6.52 0 3.201-1.169 5.576-3.493 7.104-2.34 1.544-5.447 2.307-9.332 2.307zm3.496 28.774h-19.833v-18.727h18.97c4.73 0 8.243.812 10.55 2.438 2.293 1.627 3.447 3.902 3.447 6.826 0 3.123-1.17 5.48-3.494 7.073-2.342 1.592-5.545 2.39-9.64 2.39zm89.219-57.643h-50.53v68.274h51.017v-10.827H278.24V108.17h34.236V97.343H278.24V79.788h38.627V68.96zm62.425 47.207L342.797 68.96h-11.104v68.274h11.902V88.663l37.569 48.572h10.031V68.96h-11.902v47.207zm79.985-47.207h-50.527v68.274h51.016v-10.827h-39.114V108.17h34.236V97.343h-34.236V79.788h38.625V68.96zm65.55 0h-50.723v68.274h11.9v-27.798h34.434V98.61h-34.434V79.788h38.823V68.96zm13.949 0v131.933l-65.639-35.49H37.468V40.791h615.895v124.613H550.677V68.961h-11.9zm59.11 11.118h21.655V68.96h-55.405v11.118h21.656v57.156h12.093V80.079z"/><path d="M108.871 68.302L70.488 113.69l2.268 8.684h34.833v15.49h11.644v-15.49h9.867v-9.966h-9.867V68.302h-10.362zm-1.282 44.105H84.893l22.696-27.331v27.33zM567.1 193.626l-12.593-16.289h-3.83v23.557h4.104v-16.758l12.965 16.758h3.461v-23.557H567.1v16.29zm27.599-16.289h-17.434v23.557h17.603v-3.735h-13.497v-6.292h11.813v-3.737h-11.813v-6.058H594.7v-3.735zm13.395 17.467l-5.62-17.467h-4.477l8.213 23.726h3.567l5.789-16.927 5.79 16.927h3.568l8.21-23.726h-4.34l-5.622 17.467-5.788-17.534h-3.5l-5.79 17.534zm32.076-11.31c0-.784.337-1.45 1.01-2 .672-.55 1.614-.826 2.827-.826 1.075 0 2.142.209 3.196.624 1.056.415 2.12 1.014 3.198 1.8l2.223-3.13a13.931 13.931 0 0 0-3.89-2.206c-1.379-.504-2.932-.756-4.66-.756-1.167 0-2.244.163-3.226.49-.987.325-1.828.79-2.53 1.394a6.612 6.612 0 0 0-1.655 2.173c-.398.84-.6 1.777-.6 2.81 0 1.099.174 2.029.522 2.793a5.356 5.356 0 0 0 1.52 1.951c.663.54 1.487.987 2.462 1.345.982.361 2.1.687 3.362.978 1.1.267 1.99.526 2.68.774.685.247 1.224.51 1.622.79.393.28.662.59.808.926.146.337.217.717.217 1.145 0 .92-.376 1.647-1.127 2.186-.75.539-1.767.808-3.047.808-1.48 0-2.802-.263-3.97-.79-1.166-.529-2.322-1.285-3.467-2.273l-2.49 2.963c1.412 1.278 2.95 2.225 4.61 2.842 1.66.617 3.401.926 5.217.926 1.235 0 2.369-.157 3.399-.472 1.027-.313 1.914-.773 2.644-1.38a6.36 6.36 0 0 0 1.72-2.22c.411-.876.618-1.873.618-2.994 0-.989-.163-1.847-.487-2.575a5.537 5.537 0 0 0-1.436-1.918c-.628-.55-1.426-1.017-2.38-1.397a26.205 26.205 0 0 0-3.287-1.043 33.648 33.648 0 0 1-2.787-.774c-.73-.247-1.302-.517-1.723-.808-.415-.291-.7-.606-.859-.943-.156-.337-.234-.74-.234-1.212z"/></g></symbol></svg>